<svg width="184" height="30" viewBox="0 0 184 30" fill="none" xmlns="http://www.w3.org/2000/svg">
<path fill-rule="evenodd" clip-rule="evenodd" d="M147.761 17.6119C147.761 17.0149 147.761 16.5672 147.91 15.9701C148.059 15.5224 148.208 14.9254 148.358 14.4776C148.507 14.0298 148.806 13.5821 149.104 13.1343C149.403 12.6865 149.701 12.2388 150 11.9403C150.298 11.6418 150.746 11.194 151.194 10.8955C151.641 10.597 152.089 10.2985 152.537 10.1492C152.985 9.99997 153.582 9.85074 154.179 9.70149C154.776 9.55223 155.373 9.55222 155.97 9.55222C156.567 9.55222 157.014 9.55223 157.612 9.70149C157.91 9.70149 158.059 9.85073 158.358 9.85073C158.656 9.85073 158.806 9.99997 159.104 10.1492C159.253 10.2985 159.552 10.2985 159.701 10.4478C159.85 10.597 160.149 10.7463 160.298 10.7463L160.447 10.8955L160.597 9.85073H164.477V25.2239H160.447L160.298 24.1791L160.149 24.3284C160 24.4776 159.701 24.6269 159.552 24.6269C159.403 24.7761 159.104 24.7761 158.955 24.9254C158.806 25.0746 158.507 25.0746 158.209 25.2239C157.91 25.3731 157.761 25.3731 157.462 25.3731C157.164 25.3731 156.865 25.5224 156.716 25.5224C156.417 25.5224 156.119 25.5224 155.82 25.5224C155.223 25.5224 154.626 25.5224 154.179 25.3731C153.582 25.2239 153.134 25.0746 152.537 24.9254C152.089 24.7761 151.641 24.4776 151.194 24.1791C150.746 23.8806 150.298 23.5821 150 23.1343C149.701 22.8358 149.253 22.3881 149.104 21.9403C148.806 21.4925 148.656 21.0448 148.358 20.597C148.208 20.1492 148.059 19.5522 147.91 19.1045C147.761 18.6567 147.761 18.0597 147.761 17.6119ZM62.8353 17.6119C62.8353 17.0149 62.8353 16.5672 62.9845 15.9701C63.1338 15.5224 63.283 14.9254 63.4323 14.4776C63.5815 14.0298 63.88 13.5821 64.1785 13.1343C64.4771 12.6865 64.7756 12.2388 65.2233 11.9403C65.6711 11.6418 65.9696 11.194 66.4174 10.8955C66.8651 10.597 67.3129 10.2985 67.7606 10.1492C68.2084 9.99997 68.8054 9.85074 69.4024 9.70149C69.9995 9.55223 70.5965 9.55222 71.1935 9.55222C71.7905 9.55222 72.3875 9.55223 72.9845 9.70149C73.5815 9.85074 74.0293 9.99997 74.6263 10.1492C75.0741 10.2985 75.6711 10.597 76.1189 10.8955C76.5666 11.194 77.0144 11.4925 77.3129 11.9403C77.7607 12.2388 78.0592 12.6865 78.3577 13.1343C78.6562 13.5821 78.9547 14.0298 79.1039 14.4776C79.2532 14.9254 79.4025 15.5224 79.5517 15.9701C79.701 16.5672 79.7009 17.0149 79.7009 17.6119V17.9105C79.7009 18.0597 79.7009 18.0597 79.7009 18.209L79.5517 19.1045H67.6114C67.7606 19.403 67.7606 19.5522 67.9099 19.7015C68.0592 19.8507 68.2084 20.1492 68.3577 20.2985C68.5069 20.4478 68.6562 20.597 68.8054 20.7463C68.9547 20.8955 69.1039 21.0448 69.4024 21.194C69.5517 21.3433 69.8502 21.3433 69.9994 21.4925C70.1487 21.6418 70.4472 21.6418 70.5965 21.6418C70.7457 21.6418 71.0442 21.6418 71.3427 21.6418C71.6412 21.6418 72.089 21.6418 72.3875 21.4925C72.686 21.3433 72.9845 21.3433 73.283 21.194C73.5816 21.0448 73.7308 20.8955 74.0293 20.597C74.1786 20.4477 74.3278 20.1493 74.4771 20L77.9099 22.5373C77.7607 22.8358 77.4622 22.9851 77.3129 23.1343C77.0144 23.4328 76.7159 23.7314 76.4174 23.8806C76.1189 24.1791 75.6711 24.3284 75.3726 24.4776C74.9248 24.6269 74.6263 24.7761 74.1786 24.9254C73.7308 25.0746 73.283 25.2239 72.8353 25.2239C72.3875 25.2239 71.9398 25.3731 71.3427 25.3731C70.7457 25.3731 70.1487 25.3731 69.5517 25.2239C68.9547 25.0746 68.5069 24.9254 67.9099 24.7761C67.4621 24.6269 66.8651 24.3284 66.4174 24.0298C65.9696 23.7313 65.5218 23.4328 65.2233 22.9851C64.9248 22.6866 64.4771 22.2388 64.1785 21.791C63.88 21.3433 63.5815 20.8955 63.4323 20.4478C63.283 20 63.1338 19.403 62.9845 18.9552C62.8353 18.6567 62.8353 18.0597 62.8353 17.6119ZM65.5218 6.41788L66.1189 5.52237H60.7457L55.9696 13.4328L51.1935 5.52237H45.8203L53.5815 17.7612V25.2239H58.2084V17.7612L65.5218 6.41788ZM99.104 22.0895L105.97 13.8806H99.4025V9.85073H112.537V12.8358L105.671 21.0448H112.835V25.0746H98.9547V22.2388L99.104 22.0895ZM130.149 10.7463L121.791 30H116.865L119.701 24.0298L113.582 9.99999H118.507L122.089 18.5075L125.671 9.99999H130.597L130.149 10.7463ZM81.1935 17.4627C81.1935 16.8657 81.1935 16.4179 81.3428 15.8209C81.492 15.3731 81.6413 14.7761 81.7905 14.3283C81.9398 13.8806 82.2383 13.4328 82.5368 12.9851C82.8353 12.5373 83.1338 12.0895 83.5816 11.791C84.0293 11.4925 84.3278 11.0448 84.7756 10.7463C85.2234 10.4478 85.6711 10.1492 86.1189 9.99999C86.5666 9.85073 87.1637 9.70148 87.7607 9.55222C88.3577 9.40297 88.9547 9.40296 89.5517 9.40296C90.1487 9.40296 90.7457 9.40297 91.3428 9.55222C91.9398 9.70148 92.3875 9.85073 92.9846 9.99999C93.4323 10.1492 94.0293 10.4478 94.4771 10.7463C94.9249 11.0448 95.3726 11.3433 95.6711 11.791C96.1189 12.0895 96.4174 12.5373 96.7159 12.9851C97.0144 13.4328 97.3129 13.8806 97.4622 14.3283C97.6114 14.7761 97.7607 15.3731 97.9099 15.8209C98.0592 16.4179 98.0592 16.8657 98.0592 17.4627V17.7612C98.0592 17.9104 98.0592 17.9104 98.0592 18.0597L97.9099 18.9552H85.9696C86.1189 19.2537 86.1189 19.403 86.2681 19.5522C86.4174 19.7015 86.5666 20 86.7159 20.1493C86.8652 20.2985 87.0144 20.4477 87.1636 20.597C87.3129 20.7463 87.4622 20.8955 87.7607 21.0448C87.9099 21.194 88.2084 21.194 88.3577 21.3433C88.5069 21.4925 88.8055 21.4925 88.9547 21.4925C89.104 21.4925 89.4025 21.4925 89.5517 21.4925C89.8502 21.4925 90.298 21.4925 90.5965 21.3433C90.895 21.194 91.1935 21.194 91.492 21.0448C91.7905 20.8955 91.9398 20.7463 92.2383 20.4478C92.3875 20.2985 92.5368 20 92.6861 19.8507L96.1189 22.3881C95.9696 22.6866 95.6711 22.8358 95.5219 22.9851C95.2234 23.2836 94.9248 23.5821 94.6263 23.7313C94.3278 24.0299 93.8801 24.1791 93.5816 24.3284C93.2831 24.4776 92.8353 24.6269 92.3875 24.7761C91.9398 24.9254 91.492 25.0746 91.0443 25.0746C90.5965 25.0746 90.1487 25.2239 89.5517 25.2239C88.9547 25.2239 88.3577 25.2239 87.7607 25.0746C87.1637 24.9254 86.7159 24.7761 86.1189 24.6269C85.6711 24.4776 85.0741 24.1791 84.6263 23.8806C84.1786 23.5821 83.7308 23.2836 83.4323 22.8358C83.1338 22.5373 82.686 22.0896 82.3875 21.6418C82.089 21.194 81.7905 20.7463 81.6413 20.2985C81.492 19.8507 81.3427 19.2537 81.1935 18.806C81.1935 18.6567 81.1935 18.0597 81.1935 17.4627ZM89.5517 13.2836C89.104 13.2836 88.6562 13.2836 88.2084 13.4328C88.0592 13.5821 87.7607 13.5821 87.6114 13.7313C87.4622 13.8806 87.3129 13.8806 87.1636 14.0298C87.0144 14.1791 86.8652 14.3284 86.7159 14.4776C86.5666 14.6269 86.4174 14.7761 86.2681 14.9254C86.1189 15.0746 86.1189 15.2239 85.9696 15.3731H92.9846C92.9846 15.2239 92.8353 15.0746 92.6861 14.9254C92.5368 14.7761 92.3875 14.6269 92.3875 14.4776C92.2383 14.3284 92.089 14.1791 91.9398 14.0298C91.7905 13.8806 91.6413 13.7313 91.492 13.7313C91.3428 13.5821 91.1935 13.5821 90.895 13.4328C90.4472 13.4328 89.9995 13.2836 89.5517 13.2836ZM71.1935 13.2836C70.7457 13.2836 70.298 13.2836 69.8502 13.4328C69.7009 13.4328 69.4024 13.5821 69.2532 13.7313C69.1039 13.8806 68.9547 13.8806 68.8054 14.0298C68.6562 14.1791 68.5069 14.3284 68.3577 14.4776C68.2084 14.6269 68.0592 14.7761 67.9099 14.9254C67.7606 15.0746 67.7606 15.2239 67.6114 15.3731H74.6263C74.6263 15.2239 74.4771 15.0746 74.3278 14.9254C74.1786 14.7761 74.0293 14.6269 74.0293 14.4776C73.8801 14.3284 73.7308 14.1791 73.5816 14.0298C73.4323 13.8806 73.283 13.7313 73.1338 13.7313C72.9845 13.5821 72.8353 13.5821 72.5368 13.4328C72.089 13.4328 71.6412 13.2836 71.1935 13.2836ZM182.686 10.7463L174.328 30H169.403L172.238 24.0298L166.119 9.99999H171.044L174.626 18.5075L178.209 9.99999H183.134L182.686 10.7463ZM136.567 19.1045V25.2239H131.94V5.37311H140.447C140.895 5.37311 141.492 5.37312 141.94 5.52237C142.388 5.67162 142.835 5.67163 143.283 5.97014C143.731 6.11939 144.179 6.41789 144.477 6.56714C144.925 6.86565 145.223 7.01491 145.522 7.31341C145.82 7.61192 146.119 7.91042 146.417 8.35819C146.716 8.65669 146.865 9.10446 147.014 9.55222C147.164 9.99998 147.313 10.4477 147.462 10.8955C147.611 11.3433 147.611 11.791 147.611 12.2388C147.611 12.6866 147.611 13.1343 147.462 13.7313C147.313 14.1791 147.313 14.6269 147.014 15.0746C146.865 15.5224 146.567 15.8209 146.417 16.2686C146.119 16.5672 145.82 17.0149 145.522 17.3134C145.223 17.6119 144.925 17.9104 144.477 18.0597C144.029 18.3582 143.731 18.5075 143.283 18.6567C142.835 18.806 142.388 18.9552 141.94 19.1045C141.492 19.2537 141.044 19.2537 140.447 19.2537H136.567V19.1045ZM140.298 14.9254C140.597 14.9254 141.044 14.9254 141.343 14.7761C141.492 14.7761 141.641 14.6269 141.791 14.4776C141.94 14.3284 142.089 14.3284 142.089 14.1791C142.238 14.0298 142.238 13.8806 142.388 13.7313C142.537 13.5821 142.537 13.4328 142.686 13.2836C142.686 13.1343 142.835 12.9851 142.835 12.8358C142.835 12.6865 142.835 12.5373 142.835 12.2388C142.835 12.0895 142.835 11.791 142.835 11.6418C142.835 11.4925 142.686 11.3433 142.686 11.0448C142.686 10.8955 142.537 10.7462 142.388 10.597C142.238 10.4477 142.238 10.2985 142.089 10.1492C141.94 9.99997 141.791 9.85073 141.641 9.85073C141.492 9.70147 141.343 9.70148 141.194 9.55222C141.044 9.55222 140.895 9.40296 140.746 9.40296C140.597 9.40296 140.447 9.40296 140.149 9.40296H136.567V14.9254H140.298ZM152.238 17.4627C152.238 17.7612 152.238 18.0597 152.388 18.3582C152.388 18.6567 152.537 18.9552 152.686 19.1045C152.835 19.403 152.985 19.5522 152.985 19.8507C153.134 20 153.283 20.2985 153.432 20.4478C153.582 20.597 153.731 20.7463 154.029 20.8955C154.179 21.0448 154.477 21.194 154.776 21.194C155.074 21.3433 155.223 21.3433 155.522 21.3433C155.82 21.3433 155.97 21.3433 156.268 21.3433C156.567 21.3433 156.865 21.3433 157.014 21.3433C157.313 21.3433 157.462 21.194 157.761 21.194C158.059 21.0448 158.209 21.0448 158.358 20.8955C158.507 20.7463 158.806 20.597 158.955 20.4478C159.104 20.2985 159.253 20.1492 159.403 19.8507C159.552 19.7015 159.701 19.403 159.701 19.1045C159.85 18.806 159.85 18.6567 160 18.3582C160 18.0597 160.149 17.7612 160.149 17.4627C160.149 17.1642 160.149 16.8657 160 16.5672C160 16.2686 159.85 15.9701 159.701 15.8209C159.552 15.5224 159.552 15.3731 159.403 15.0746C159.253 14.9254 159.104 14.6269 158.955 14.4776C158.806 14.3284 158.507 14.1791 158.358 14.0298C158.209 13.8806 157.91 13.7313 157.612 13.7313C157.313 13.5821 157.164 13.5821 156.865 13.5821C156.567 13.5821 156.417 13.5821 156.119 13.5821C155.82 13.5821 155.522 13.5821 155.373 13.5821C155.074 13.5821 154.925 13.7313 154.626 13.7313C154.328 13.8806 154.179 13.8806 154.029 14.0298C153.88 14.1791 153.582 14.3284 153.432 14.4776C153.283 14.6269 153.134 14.9254 152.985 15.0746C152.835 15.2239 152.686 15.5224 152.686 15.8209C152.537 16.1194 152.537 16.2686 152.388 16.5672C152.238 17.0149 152.238 17.1642 152.238 17.4627Z" fill="white"/>
<path fill-rule="evenodd" clip-rule="evenodd" d="M33.8815 1.34328C32.986 0.895514 32.0905 0.597011 31.0457 0.298503C30.2995 0.149249 29.2547 0.149254 28.3592 0H27.9114H12.6875L16.5681 5.37313H19.7024H26.4189C28.5084 5.37313 30.8965 5.37313 32.5383 6.86567C32.986 7.31343 33.4338 7.91045 33.583 8.50747C33.8816 9.10448 34.0308 9.7015 34.0308 10.4478C34.0308 11.194 33.8816 11.791 33.583 12.3881C33.2845 12.9851 32.986 13.5821 32.5383 14.0299C31.9413 14.6269 31.195 15.0746 30.2995 15.2239C29.2547 15.5224 28.0607 15.6717 27.0159 15.6717L24.18 20.8955C26.1203 21.0448 28.2099 21.0448 30.4487 20.597C32.6875 20.1493 34.7771 19.403 36.4189 17.7612C37.3144 16.8657 38.2099 15.6716 38.6577 14.3284C39.1054 13.1343 39.4039 11.791 39.4039 10.2985C39.4039 8.95522 39.1054 7.61194 38.6577 6.26866C38.0607 4.92537 37.3144 3.88059 36.4189 2.83582C35.5233 2.38805 34.7771 1.79104 33.8815 1.34328Z" fill="#26C7BC"/>
<path fill-rule="evenodd" clip-rule="evenodd" d="M6.56716 0L17.4627 15.6717L14.3284 20.7463L0 0H6.56716Z" fill="white"/>
<path fill-rule="evenodd" clip-rule="evenodd" d="M30.1481 7.16418L19.7003 25.3732H13.4316L23.8794 7.16418L29.9988 7.31345L30.1481 7.16418Z" fill="white"/>
</svg>
