<svg width="51" height="50" viewBox="0 0 51 50" fill="none" xmlns="http://www.w3.org/2000/svg">
<path d="M50.0854 31.0476C46.746 44.4406 33.1796 52.5913 19.7835 49.2515C6.39303 45.9126 -1.7586 32.3468 1.58217 18.9549C4.92001 5.56048 18.4865 -2.59085 31.8784 0.748085C45.2735 4.08702 53.4247 17.6543 50.085 31.0479L50.0852 31.0476H50.0854Z" fill="#F7931A"/>
<path fill-rule="evenodd" clip-rule="evenodd" d="M36.8585 21.4381C37.3561 18.1111 34.8229 16.3228 31.359 15.1297L32.4827 10.6231L29.7391 9.93951L28.6452 14.3275C27.9239 14.1476 27.1831 13.9781 26.4469 13.8101L27.5488 9.39317L24.8069 8.70959L23.6825 13.2148C23.0856 13.0789 22.4994 12.9446 21.9306 12.8031L21.9338 12.7889L18.1502 11.8442L17.4204 14.7743C17.4204 14.7743 19.4559 15.2408 19.4131 15.2695C20.5241 15.5468 20.725 16.2822 20.6916 16.8651L19.4116 21.9992C19.4881 22.0186 19.5873 22.0467 19.6968 22.0907L19.6172 22.0709L19.6171 22.0708C19.5494 22.0539 19.4791 22.0363 19.4068 22.019L17.6126 29.2112C17.4769 29.5487 17.1322 30.0552 16.3554 29.8629C16.3829 29.9027 14.3613 29.3653 14.3613 29.3653L12.9991 32.5055L16.5696 33.3955C16.9602 33.4935 17.3463 33.5941 17.7285 33.6937L17.7294 33.6939L17.7298 33.694C17.9969 33.7637 18.2621 33.8328 18.5257 33.9002L17.3903 38.4585L20.1308 39.1421L21.2551 34.6321C22.0038 34.8353 22.7304 35.0228 23.4416 35.1995L22.3211 39.6882L25.0648 40.3718L26.2001 35.822C30.8786 36.7073 34.3964 36.3504 35.8771 32.1191C37.0703 28.7125 35.8177 26.7476 33.3564 25.4662C35.1491 25.0528 36.4994 23.8738 36.8595 21.4384L36.8586 21.4378L36.8585 21.4381ZM30.5899 30.2272C29.812 33.3527 24.9192 32.0606 22.6806 31.4694L22.6802 31.4693C22.479 31.4161 22.2992 31.3687 22.1458 31.3306L23.6525 25.2916C23.8395 25.3383 24.0681 25.3895 24.3271 25.4477C26.6427 25.9673 31.387 27.0318 30.59 30.2272H30.5899ZM24.7916 22.6447C26.6579 23.1428 30.7294 24.2292 31.4384 21.3886H31.4387C32.1627 18.4833 28.206 17.6074 26.2735 17.1796C26.0561 17.1314 25.8643 17.089 25.7077 17.0499L24.3417 22.527C24.4707 22.5591 24.6221 22.5995 24.7916 22.6447Z" fill="white"/>
</svg>
