<svg width="49" height="17" viewBox="0 0 49 17" fill="none" xmlns="http://www.w3.org/2000/svg">
<g clip-path="url(#clip0_1_89)">
<path d="M19.719 1.35754L17.2804 15.6728H21.1816L23.623 1.35754H19.719ZM14.0089 1.37354L10.1877 11.1364L9.78015 9.66248C9.02721 7.88648 6.88697 5.33495 4.37592 3.72743L7.86956 15.6662L11.9976 15.6587L18.1425 1.37072L14.0089 1.37354Z" fill="#0085F3"/>
<path d="M8.29859 2.39874C8.07271 1.52626 7.41482 1.2665 6.59882 1.23544H0.549882L0.5 1.52062C5.20682 2.66227 8.32118 5.41427 9.61435 8.7225L8.29859 2.39874ZM31.5306 4.10227C32.5313 4.08002 33.5256 4.26657 34.4501 4.65003L34.8021 4.81568L35.3301 1.71356C34.5584 1.42274 33.3471 1.11121 31.8355 1.11121C27.9805 1.11121 25.2624 3.05379 25.2416 5.83591C25.2162 7.89238 27.1776 9.04062 28.6581 9.72579C30.1791 10.4279 30.6882 10.874 30.6816 11.5018C30.6694 12.4599 29.4694 12.8994 28.3475 12.8994C26.7852 12.8994 25.956 12.6839 24.6751 12.1503L24.1715 11.9216L23.6228 15.1253C24.5358 15.5263 26.2205 15.8698 27.9701 15.8877C32.0708 15.8877 34.7372 13.9696 34.7645 10.9964C34.7814 9.37003 33.7414 8.12862 31.4864 7.10932C30.1216 6.44579 29.2868 6.00438 29.2944 5.33332C29.2944 4.7385 30.0031 4.10227 31.5306 4.10227ZM45.3433 1.37379H42.3287C41.3922 1.37379 40.6958 1.62885 40.2845 2.5625L34.4915 15.6816H38.5885C38.5885 15.6816 39.2567 13.9178 39.4082 13.531L44.4049 13.5366C44.5207 14.0364 44.8802 15.6816 44.8802 15.6816H48.5L45.3433 1.37379ZM40.5311 10.6011C40.852 9.77944 42.0859 6.60015 42.0859 6.60015C42.0642 6.63968 42.404 5.77191 42.6054 5.23356L42.8689 6.46744L43.7725 10.6011H40.5311Z" fill="#0085F3"/>
</g>
<defs>
<clipPath id="clip0_1_89">
<rect width="48" height="16" fill="white" transform="translate(0.5 0.5)"/>
</clipPath>
</defs>
</svg>
