<svg width="43" height="25" viewBox="0 0 43 25" fill="none" xmlns="http://www.w3.org/2000/svg">
<path d="M26.9396 3.03687H16.0312V21.9633H26.9396V3.03687Z" fill="#FF5F00"/>
<path d="M16.7247 12.501C16.7239 10.6736 17.1521 8.87161 17.9747 7.2399C18.8087 5.58916 20.0098 4.15145 21.4858 3.03712C19.6303 1.63512 17.4258 0.768975 15.1122 0.532956C12.7912 0.291375 10.4482 0.686034 8.33445 1.67462C6.24667 2.6474 4.47317 4.18562 3.215 6.1149C1.97781 8.01525 1.31786 10.2334 1.315 12.501C1.315 14.7593 1.97334 16.9732 3.215 18.8871C4.47285 20.8162 6.24583 22.3543 8.33306 23.3274C10.4473 24.3162 12.7908 24.7109 15.1122 24.4691C17.4258 24.233 19.6303 23.3669 21.4858 21.9649C20.0105 20.8508 18.8099 19.4136 17.9761 17.7635C17.1527 16.1315 16.7241 14.329 16.7247 12.501Z" fill="#EB001B"/>
<path d="M41.6559 12.4998C41.6559 14.7581 40.9976 16.972 39.7573 18.8859C38.4992 20.8152 36.7257 22.3535 34.6379 23.3262C32.5241 24.3148 30.1811 24.7095 27.8601 24.4678C25.546 24.2321 23.341 23.3659 21.4851 21.9637C22.9596 20.8485 24.1596 19.4109 24.9934 17.7609C25.8167 16.1292 26.2462 14.3274 26.2476 12.4998C26.2465 10.6728 25.8174 8.87143 24.9948 7.24006C24.1612 5.58955 22.9611 4.15151 21.4865 3.0359C23.3416 1.63414 25.5456 0.767998 27.8587 0.531731C30.1802 0.289894 32.5237 0.684559 34.6379 1.6734C36.7257 2.64618 38.4992 4.1844 39.7573 6.11368C40.994 8.01418 41.6535 10.2323 41.6559 12.4998ZM40.4671 19.9623V19.5734H40.6282V19.4956H40.2171V19.5734H40.3782V19.9623H40.4671ZM41.2671 19.9623V19.4942H41.1407L40.9948 19.8165L40.849 19.4942H40.724V19.9623H40.8129V19.6095L40.949 19.9137H41.042L41.1782 19.6081V19.9623H41.2671Z" fill="#F79E1B"/>
</svg>
