<svg width="51" height="50" viewBox="0 0 51 50" fill="none" xmlns="http://www.w3.org/2000/svg">
<path d="M49.9186 31.0476C46.5793 44.4406 33.0128 52.5913 19.6168 49.2515C6.22628 45.9126 -1.92535 32.3468 1.41542 18.9549C4.75326 5.56048 18.3197 -2.59085 31.7117 0.748086C45.1068 4.08702 53.2579 17.6543 49.9182 31.0479L49.9185 31.0476H49.9186Z" fill="#50AF95"/>
<path fill-rule="evenodd" clip-rule="evenodd" d="M28.8332 27.8344C28.6564 27.8476 27.743 27.9021 25.7054 27.9021C24.0848 27.9021 22.9342 27.8535 22.5305 27.8344C16.2677 27.5589 11.593 26.4688 11.593 25.1636C11.593 23.8585 16.2677 22.7698 22.5305 22.4899V26.7487C22.9401 26.7782 24.1128 26.8474 25.7334 26.8474C27.6782 26.8474 28.652 26.7664 28.8273 26.7502V22.4929C35.0769 22.7713 39.7413 23.8614 39.7413 25.1636C39.7413 26.4659 35.0784 27.556 28.8273 27.8329L28.8332 27.8344ZM28.8332 22.0524V18.2415H37.555V12.4301H13.8088V18.2415H22.5291V22.0509C15.4412 22.3765 10.1109 23.7803 10.1109 25.4626C10.1109 27.1449 15.4412 28.5473 22.5291 28.8743V41.0864H28.8318V28.8699C35.9035 28.5444 41.2249 27.142 41.2249 25.4611C41.2249 23.7803 35.9079 22.3779 28.8318 22.0509L28.8332 22.0524Z" fill="white"/>
</svg>
